<svg xmlns="http://www.w3.org/2000/svg" xmlns:xlink="http://www.w3.org/1999/xlink" width="500" zoomAndPan="magnify" viewBox="0 0 375 74.999997" height="100" preserveAspectRatio="xMidYMid meet" version="1.0"><path fill="#000000" d="M 167.660156 27.320312 C 178.597656 25.636719 188.820312 33.167969 190.472656 44.121094 C 192.125 55.078125 184.582031 65.296875 173.636719 66.925781 C 162.730469 68.550781 152.570312 61.027344 150.921875 50.109375 C 149.273438 39.1875 156.761719 28.996094 167.660156 27.320312 Z M 172.523438 57.757812 C 182.113281 54.535156 183.179688 42.476562 174.769531 37.128906 C 173.339844 36.21875 170.988281 36.21875 169.289062 36.296875 C 156.675781 39.476562 158.652344 58.910156 172.523438 57.757812 Z M 172.523438 57.757812 " fill-opacity="1" fill-rule="nonzero"/><path fill="#000000" d="M 259.6875 27.515625 C 269.910156 26.460938 276.484375 33.3125 280.128906 42.183594 C 273.390625 46.792969 264.675781 52.121094 258.308594 56.96875 C 263.613281 59.109375 266.394531 58.507812 270.707031 54.839844 C 272.765625 56.128906 275.304688 58.015625 277.335938 59.441406 C 277.796875 59.78125 277.832031 59.863281 278.089844 60.378906 C 277.886719 63.765625 269.375 66.878906 266.464844 67.328125 C 261.472656 68.140625 256.371094 66.902344 252.300781 63.898438 C 241.085938 55.578125 239.15625 35.082031 253.65625 29.011719 C 255.65625 28.171875 257.554688 27.828125 259.6875 27.515625 Z M 253.175781 48.789062 L 257.871094 45.527344 L 267.183594 38.921875 C 264.953125 36.929688 263.589844 36.074219 260.398438 36.25 C 260.265625 36.257812 260.125 36.265625 259.988281 36.277344 C 253.441406 38.425781 252.746094 42.632812 253.175781 48.789062 Z M 253.175781 48.789062 " fill-opacity="1" fill-rule="nonzero"/><path fill="#000000" d="M 334.789062 27.035156 C 340.316406 26.214844 347.023438 28.164062 350.980469 32.222656 C 357.011719 38.414062 356.734375 46.238281 356.734375 54.257812 L 356.699219 66.609375 C 353.628906 66.726562 350.269531 66.664062 347.179688 66.667969 C 347.195312 60.910156 347.226562 55.136719 347.171875 49.378906 C 347.136719 45.566406 346.457031 41.496094 343.566406 38.761719 C 341.84375 37.132812 339.058594 36.078125 336.675781 36.195312 C 333.398438 36.359375 331.308594 37.917969 329.195312 40.1875 C 325.148438 46.8125 327.339844 56.023438 335.824219 57.472656 C 337.707031 57.796875 339.386719 57.441406 341.257812 57.136719 C 341.304688 60.234375 341.277344 63.398438 341.285156 66.503906 C 335.644531 67.292969 330.101562 66.722656 325.335938 63.335938 C 316.394531 56.980469 314.976562 43.398438 321.277344 34.71875 C 324.664062 30.054688 329.199219 27.929688 334.789062 27.035156 Z M 334.789062 27.035156 " fill-opacity="1" fill-rule="nonzero"/><path fill="#000000" d="M 206.460938 28.160156 L 239.800781 28.144531 L 239.8125 37.296875 C 233.675781 43.914062 226.613281 50.570312 220.246094 57.210938 L 239.941406 57.203125 C 240.03125 60.261719 239.996094 63.484375 240.011719 66.554688 C 230.226562 67.058594 216.492188 66.8125 206.460938 66.664062 L 206.464844 57.289062 C 208.355469 55.554688 210.632812 53.007812 212.523438 51.101562 C 217.050781 46.59375 221.546875 42.050781 226.015625 37.480469 L 206.46875 37.464844 Z M 206.460938 28.160156 " fill-opacity="1" fill-rule="nonzero"/><path fill="#000000" d="M 118.507812 9.519531 C 121.695312 9.5 124.878906 9.507812 128.0625 9.550781 L 128.042969 36.492188 C 128.023438 57.863281 126.25 57.273438 147.683594 57.210938 L 147.667969 66.601562 C 146.007812 66.632812 144.347656 66.652344 142.6875 66.660156 C 116.914062 66.777344 118.496094 57.851562 118.5 35.679688 Z M 118.507812 9.519531 " fill-opacity="1" fill-rule="nonzero"/><path fill="#000000" d="M 193.390625 9.546875 L 203.066406 9.539062 C 203.265625 15.703125 203.105469 22.925781 203.109375 29.171875 L 203.125 66.714844 L 193.363281 66.71875 Z M 193.390625 9.546875 " fill-opacity="1" fill-rule="nonzero"/><path fill="#000000" d="M 304.550781 28.199219 C 306.777344 27.917969 311.6875 28.054688 314.136719 28.070312 L 314.164062 50.191406 C 314.183594 55.539062 314.363281 61.359375 314.117188 66.664062 C 311.304688 66.824219 307.371094 66.714844 304.472656 66.722656 C 304.1875 56.921875 304.5625 47.027344 304.449219 37.21875 C 304.414062 34.21875 304.382812 31.195312 304.550781 28.199219 Z M 304.550781 28.199219 " fill-opacity="1" fill-rule="nonzero"/><path fill="#000000" d="M 309.050781 16.605469 C 311.65625 16.492188 313.875 18.476562 314.054688 21.082031 C 314.238281 23.683594 312.316406 25.957031 309.71875 26.207031 C 307.984375 26.375 306.285156 25.585938 305.296875 24.144531 C 304.308594 22.699219 304.175781 20.835938 304.957031 19.269531 C 305.738281 17.703125 307.304688 16.683594 309.050781 16.605469 Z M 309.050781 16.605469 " fill-opacity="1" fill-rule="nonzero"/><path fill="#000000" d="M 50.792969 6.433594 L 50.898438 6.425781 C 53.023438 6.28125 56.351562 6.542969 58.636719 6.519531 C 67.507812 6.421875 74.9375 6.421875 81.898438 12.679688 C 90.714844 20.609375 90.203125 28.128906 90.148438 38.917969 C 90.109375 47.753906 90.914062 54.894531 84.304688 62.089844 C 79.144531 67.707031 73.953125 70.035156 66.476562 70.464844 C 59.871094 70.460938 48.871094 71.132812 43.109375 69.183594 C 28.496094 64.242188 26.007812 51.484375 26.710938 37.902344 C 27.179688 28.78125 26.222656 22.578125 32.679688 14.960938 C 37.582031 9.171875 43.601562 7.054688 50.792969 6.433594 Z M 50.984375 25.90625 C 47.652344 26.773438 45.507812 28.511719 46.367188 32.203125 C 46.585938 33.292969 47.574219 34.863281 48.660156 35.296875 C 56.867188 38.5625 71.140625 31.40625 75.25 42.59375 C 77.097656 47.625 74.210938 54.433594 68.933594 55.332031 C 62.984375 56.34375 51.125 55.996094 45.238281 54.78125 C 43.210938 54.367188 41.257812 53.648438 39.445312 52.652344 C 36.085938 50.8125 34.003906 48.636719 31.480469 45.816406 C 31.605469 50.578125 32.355469 53.425781 35.039062 57.4375 C 42.21875 66.214844 48.300781 65.753906 58.910156 65.683594 C 66.4375 65.636719 71.945312 66.59375 78.238281 61.226562 C 82.414062 57.671875 84.902344 53.53125 85.414062 47.980469 C 85.953125 42.601562 84.316406 37.230469 80.863281 33.070312 C 73.742188 24.566406 64.273438 26.105469 54.347656 25.9375 C 53.25 25.917969 52.074219 25.816406 50.984375 25.90625 Z M 46.601562 39.820312 C 38.636719 35.242188 39.542969 23.566406 48.082031 21.5625 C 52.539062 20.519531 66.714844 20.894531 71.332031 21.875 C 73.691406 22.378906 75.949219 23.261719 78.023438 24.496094 C 81.054688 26.289062 82.941406 28.199219 85.269531 30.78125 C 84.003906 14.121094 71.667969 10.199219 57.273438 11.144531 C 55.128906 11.285156 51.917969 10.777344 49.863281 11.199219 C 43.867188 12.011719 39.558594 14.042969 35.777344 18.921875 C 29.21875 27.375 30.625 40.21875 39.207031 46.761719 C 45.667969 51.683594 53.386719 50.714844 61 51.039062 C 63.828125 51.15625 68.035156 51.523438 70.015625 48.929688 C 72.109375 45.941406 70.367188 41.671875 66.703125 41.199219 C 60.21875 39.953125 52.707031 42.296875 46.601562 39.820312 Z M 46.601562 39.820312 " fill-opacity="1" fill-rule="nonzero"/></svg>