<svg xmlns="http://www.w3.org/2000/svg" xmlns:xlink="http://www.w3.org/1999/xlink" width="500" zoomAndPan="magnify" viewBox="0 0 375 74.999997" height="100" preserveAspectRatio="xMidYMid meet" version="1.0"><path fill="#ffffff" d="M 167.835938 27.121094 C 178.777344 25.441406 189.003906 32.964844 190.65625 43.90625 C 192.308594 54.84375 184.761719 65.050781 173.816406 66.675781 C 162.902344 68.300781 152.738281 60.785156 151.089844 49.882812 C 149.441406 38.976562 156.933594 28.796875 167.835938 27.121094 Z M 172.699219 57.523438 C 182.292969 54.300781 183.359375 42.261719 174.945312 36.921875 C 173.515625 36.011719 171.160156 36.007812 169.464844 36.089844 C 156.847656 39.265625 158.820312 58.671875 172.699219 57.523438 Z M 172.699219 57.523438 " fill-opacity="1" fill-rule="nonzero"/><path fill="#ffffff" d="M 259.902344 27.320312 C 270.128906 26.269531 276.707031 33.105469 280.351562 41.96875 C 273.609375 46.570312 264.890625 51.894531 258.519531 56.734375 C 263.828125 58.871094 266.609375 58.273438 270.925781 54.605469 C 272.984375 55.894531 275.523438 57.777344 277.558594 59.203125 C 278.015625 59.542969 278.050781 59.625 278.308594 60.140625 C 278.109375 63.523438 269.589844 66.632812 266.679688 67.078125 C 261.6875 67.890625 256.582031 66.65625 252.511719 63.652344 C 241.292969 55.34375 239.363281 34.875 253.867188 28.8125 C 255.867188 27.976562 257.769531 27.632812 259.902344 27.320312 Z M 253.386719 48.566406 L 258.085938 45.304688 L 267.402344 38.710938 C 265.167969 36.71875 263.804688 35.867188 260.613281 36.042969 C 260.476562 36.050781 260.335938 36.058594 260.199219 36.070312 C 253.652344 38.214844 252.957031 42.417969 253.386719 48.566406 Z M 253.386719 48.566406 " fill-opacity="1" fill-rule="nonzero"/><path fill="#ffffff" d="M 335.035156 26.839844 C 340.5625 26.019531 347.273438 27.964844 351.234375 32.023438 C 357.265625 38.203125 356.988281 46.015625 356.988281 54.027344 L 356.953125 66.359375 C 353.882812 66.476562 350.523438 66.417969 347.429688 66.417969 C 347.445312 60.667969 347.480469 54.902344 347.421875 49.15625 C 347.386719 45.347656 346.707031 41.28125 343.816406 38.550781 C 342.09375 36.925781 339.304688 35.871094 336.921875 35.988281 C 333.644531 36.148438 331.554688 37.707031 329.441406 39.972656 C 325.390625 46.59375 327.585938 55.792969 336.070312 57.238281 C 337.957031 57.558594 339.632812 57.207031 341.503906 56.898438 C 341.550781 59.996094 341.527344 63.15625 341.535156 66.257812 C 335.890625 67.046875 330.34375 66.476562 325.574219 63.089844 C 316.632812 56.746094 315.214844 43.183594 321.519531 34.515625 C 324.90625 29.855469 329.441406 27.734375 335.035156 26.839844 Z M 335.035156 26.839844 " fill-opacity="1" fill-rule="nonzero"/><path fill="#ffffff" d="M 206.652344 27.960938 L 240.003906 27.949219 L 240.019531 37.089844 C 233.878906 43.695312 226.8125 50.34375 220.441406 56.972656 L 240.144531 56.96875 C 240.234375 60.023438 240.203125 63.238281 240.21875 66.304688 C 230.425781 66.8125 216.6875 66.5625 206.652344 66.417969 L 206.65625 57.050781 C 208.546875 55.320312 210.824219 52.777344 212.71875 50.875 C 217.246094 46.371094 221.746094 41.835938 226.214844 37.273438 L 206.65625 37.257812 Z M 206.652344 27.960938 " fill-opacity="1" fill-rule="nonzero"/><path fill="#ffffff" d="M 118.660156 9.347656 C 121.847656 9.328125 125.035156 9.335938 128.222656 9.375 L 128.199219 36.285156 C 128.179688 57.625 126.402344 57.035156 147.851562 56.976562 L 147.835938 66.355469 C 146.171875 66.382812 144.511719 66.402344 142.851562 66.414062 C 117.066406 66.527344 118.648438 57.617188 118.652344 35.472656 Z M 118.660156 9.347656 " fill-opacity="1" fill-rule="nonzero"/><path fill="#ffffff" d="M 193.578125 9.375 L 203.253906 9.367188 C 203.453125 15.523438 203.292969 22.738281 203.296875 28.972656 L 203.3125 66.46875 L 193.546875 66.472656 Z M 193.578125 9.375 " fill-opacity="1" fill-rule="nonzero"/><path fill="#ffffff" d="M 304.78125 28 C 307.011719 27.71875 311.921875 27.855469 314.375 27.871094 L 314.402344 49.96875 C 314.417969 55.304688 314.601562 61.117188 314.355469 66.417969 C 311.539062 66.578125 307.605469 66.46875 304.707031 66.472656 C 304.417969 56.6875 304.792969 46.804688 304.679688 37.011719 C 304.644531 34.011719 304.613281 30.996094 304.78125 28 Z M 304.78125 28 " fill-opacity="1" fill-rule="nonzero"/><path fill="#ffffff" d="M 309.285156 16.425781 C 311.890625 16.3125 314.109375 18.292969 314.292969 20.894531 C 314.472656 23.492188 312.550781 25.765625 309.953125 26.015625 C 308.21875 26.179688 306.519531 25.390625 305.53125 23.953125 C 304.539062 22.511719 304.410156 20.648438 305.191406 19.082031 C 305.96875 17.519531 307.535156 16.5 309.285156 16.425781 Z M 309.285156 16.425781 " fill-opacity="1" fill-rule="nonzero"/><path fill="#ffffff" d="M 50.734375 6.316406 L 50.835938 6.308594 C 52.960938 6.167969 56.289062 6.425781 58.574219 6.402344 C 67.4375 6.304688 74.867188 6.304688 81.824219 12.558594 C 90.636719 20.476562 90.125 27.988281 90.070312 38.769531 C 90.03125 47.597656 90.835938 54.730469 84.230469 61.917969 C 79.074219 67.527344 73.882812 69.851562 66.410156 70.28125 C 59.804688 70.277344 48.8125 70.953125 43.054688 69.003906 C 28.445312 64.070312 25.957031 51.320312 26.660156 37.753906 C 27.128906 28.640625 26.171875 22.445312 32.625 14.835938 C 37.527344 9.054688 43.546875 6.9375 50.734375 6.316406 Z M 50.925781 25.769531 C 47.59375 26.636719 45.449219 28.371094 46.308594 32.0625 C 46.527344 33.148438 47.515625 34.71875 48.601562 35.152344 C 56.804688 38.414062 71.070312 31.261719 75.179688 42.441406 C 77.023438 47.46875 74.140625 54.269531 68.863281 55.167969 C 62.917969 56.179688 51.0625 55.832031 45.179688 54.617188 C 43.15625 54.203125 41.203125 53.484375 39.390625 52.488281 C 36.035156 50.652344 33.949219 48.476562 31.425781 45.660156 C 31.550781 50.417969 32.300781 53.261719 34.984375 57.269531 C 42.160156 66.039062 48.238281 65.578125 58.847656 65.507812 C 66.371094 65.460938 71.875 66.417969 78.167969 61.054688 C 82.335938 57.503906 84.828125 53.371094 85.339844 47.824219 C 85.878906 42.449219 84.238281 37.085938 80.789062 32.929688 C 73.671875 24.433594 64.203125 25.96875 54.285156 25.800781 C 53.1875 25.785156 52.011719 25.679688 50.925781 25.769531 Z M 46.542969 39.671875 C 38.582031 35.097656 39.488281 23.433594 48.023438 21.433594 C 52.476562 20.386719 66.648438 20.765625 71.261719 21.742188 C 73.621094 22.246094 75.878906 23.128906 77.949219 24.359375 C 80.980469 26.152344 82.867188 28.0625 85.191406 30.640625 C 83.929688 13.996094 71.597656 10.078125 57.210938 11.023438 C 55.066406 11.164062 51.859375 10.65625 49.804688 11.078125 C 43.808594 11.890625 39.503906 13.917969 35.722656 18.792969 C 29.167969 27.238281 30.570312 40.070312 39.152344 46.605469 C 45.609375 51.519531 53.324219 50.550781 60.9375 50.875 C 63.761719 50.996094 67.96875 51.363281 69.945312 48.773438 C 72.039062 45.785156 70.296875 41.519531 66.636719 41.046875 C 60.15625 39.804688 52.648438 42.144531 46.542969 39.671875 Z M 46.542969 39.671875 " fill-opacity="1" fill-rule="nonzero"/></svg>