<svg xmlns="http://www.w3.org/2000/svg" xmlns:xlink="http://www.w3.org/1999/xlink" width="400" zoomAndPan="magnify" viewBox="0 0 300 299.999988" height="400" preserveAspectRatio="xMidYMid meet" version="1.0"><path fill="#000000" d="M 122.925781 50.363281 L 123.261719 50.335938 C 130.039062 49.878906 140.648438 50.710938 147.9375 50.628906 C 176.214844 50.320312 199.910156 50.316406 222.097656 70.253906 C 250.207031 95.511719 248.574219 119.464844 248.410156 153.84375 C 248.277344 181.984375 250.84375 204.730469 229.777344 227.648438 C 213.324219 245.542969 196.773438 252.957031 172.933594 254.324219 C 151.867188 254.3125 116.804688 256.460938 98.429688 250.253906 C 51.835938 234.511719 43.90625 193.863281 46.140625 150.605469 C 47.640625 121.542969 44.589844 101.785156 65.167969 77.523438 C 80.804688 59.085938 100 52.339844 122.925781 50.363281 Z M 123.539062 112.386719 C 112.914062 115.148438 106.074219 120.683594 108.820312 132.453125 C 109.519531 135.917969 112.664062 140.925781 116.125 142.300781 C 142.289062 152.703125 187.804688 129.902344 200.90625 165.550781 C 206.792969 181.574219 197.585938 203.269531 180.757812 206.128906 C 161.800781 209.351562 123.984375 208.242188 105.21875 204.371094 C 98.753906 203.046875 92.527344 200.757812 86.75 197.582031 C 76.039062 191.726562 69.394531 184.796875 61.347656 175.8125 C 61.746094 190.980469 64.140625 200.058594 72.691406 212.835938 C 95.585938 240.796875 114.972656 239.328125 148.808594 239.105469 C 172.804688 238.945312 190.359375 242 210.433594 224.90625 C 223.738281 213.578125 231.683594 200.394531 233.3125 182.710938 C 235.03125 165.574219 229.804688 148.464844 218.800781 135.214844 C 196.101562 108.128906 165.902344 113.019531 134.261719 112.492188 C 130.757812 112.433594 127.011719 112.097656 123.539062 112.386719 Z M 109.5625 156.714844 C 84.167969 142.132812 87.0625 104.933594 114.285156 98.554688 C 128.488281 95.226562 173.6875 96.425781 188.414062 99.546875 C 195.933594 101.148438 203.136719 103.96875 209.746094 107.894531 C 219.414062 113.613281 225.425781 119.695312 232.84375 127.917969 C 228.8125 74.847656 189.476562 62.351562 143.59375 65.363281 C 136.75 65.8125 126.519531 64.191406 119.964844 65.535156 C 100.839844 68.132812 87.113281 74.601562 75.046875 90.136719 C 54.136719 117.070312 58.621094 157.980469 85.992188 178.820312 C 106.582031 194.496094 131.191406 191.414062 155.472656 192.445312 C 164.480469 192.828125 177.90625 193.992188 184.210938 185.734375 C 190.886719 176.214844 185.332031 162.613281 173.652344 161.109375 C 152.984375 157.140625 129.035156 164.605469 109.5625 156.714844 Z M 109.5625 156.714844 " fill-opacity="1" fill-rule="nonzero"/></svg>