<svg xmlns="http://www.w3.org/2000/svg" xmlns:xlink="http://www.w3.org/1999/xlink" width="400" zoomAndPan="magnify" viewBox="0 0 300 299.999988" height="400" preserveAspectRatio="xMidYMid meet" version="1.0"><path fill="#ffffff" d="M 122.992188 50.523438 L 123.328125 50.496094 C 130.105469 50.039062 140.71875 50.871094 148.007812 50.789062 C 176.285156 50.484375 199.984375 50.480469 222.175781 70.425781 C 250.289062 95.695312 248.65625 119.660156 248.492188 154.054688 C 248.359375 182.207031 250.929688 204.964844 229.855469 227.894531 C 213.402344 245.796875 196.847656 253.214844 173.007812 254.582031 C 151.9375 254.570312 116.867188 256.71875 98.492188 250.511719 C 51.890625 234.761719 43.957031 194.09375 46.191406 150.816406 C 47.695312 121.738281 44.640625 101.96875 65.226562 77.695312 C 80.863281 59.253906 100.0625 52.5 122.992188 50.523438 Z M 123.605469 112.578125 C 112.976562 115.339844 106.136719 120.878906 108.882812 132.652344 C 109.582031 136.121094 112.726562 141.128906 116.1875 142.507812 C 142.355469 152.914062 187.878906 130.101562 200.980469 165.769531 C 206.871094 181.796875 197.660156 203.503906 180.832031 206.363281 C 161.871094 209.589844 124.046875 208.480469 105.28125 204.605469 C 98.816406 203.28125 92.589844 200.992188 86.808594 197.816406 C 76.097656 191.957031 69.449219 185.019531 61.402344 176.03125 C 61.800781 191.210938 64.195312 200.289062 72.75 213.074219 C 95.648438 241.046875 115.039062 239.578125 148.878906 239.355469 C 172.878906 239.199219 190.433594 242.253906 210.511719 225.152344 C 223.820312 213.816406 231.761719 200.625 233.394531 182.933594 C 235.113281 165.789062 229.886719 148.671875 218.878906 135.414062 C 196.175781 108.316406 165.972656 113.210938 134.328125 112.683594 C 130.824219 112.625 127.078125 112.289062 123.605469 112.578125 Z M 109.625 156.925781 C 84.226562 142.339844 87.121094 105.121094 114.347656 98.738281 C 128.554688 95.410156 173.761719 96.609375 188.488281 99.730469 C 196.007812 101.332031 203.214844 104.15625 209.824219 108.082031 C 219.496094 113.804688 225.503906 119.890625 232.925781 128.117188 C 228.894531 75.019531 189.550781 62.515625 143.660156 65.53125 C 136.816406 65.980469 126.582031 64.359375 120.03125 65.703125 C 100.902344 68.304688 87.171875 74.773438 75.105469 90.320312 C 54.191406 117.261719 58.675781 158.195312 86.050781 179.042969 C 106.644531 194.726562 131.257812 191.640625 155.542969 192.671875 C 164.550781 193.054688 177.976562 194.222656 184.285156 185.960938 C 190.960938 176.4375 185.40625 162.828125 173.726562 161.320312 C 153.050781 157.355469 129.097656 164.820312 109.625 156.925781 Z M 109.625 156.925781 " fill-opacity="1" fill-rule="nonzero"/></svg>