<svg xmlns="http://www.w3.org/2000/svg" xmlns:xlink="http://www.w3.org/1999/xlink" width="500" zoomAndPan="magnify" viewBox="0 0 375 74.999997" height="100" preserveAspectRatio="xMidYMid meet" version="1.0"><path fill="#ffffff" d="M 117.367188 27.121094 C 128.304688 25.441406 138.53125 32.964844 140.1875 43.90625 C 141.839844 54.84375 134.292969 65.050781 123.34375 66.675781 C 112.433594 68.300781 102.265625 60.785156 100.617188 49.882812 C 98.96875 38.976562 106.460938 28.796875 117.367188 27.121094 Z M 122.226562 57.523438 C 131.820312 54.300781 132.890625 42.261719 124.472656 36.921875 C 123.042969 36.011719 120.691406 36.007812 118.992188 36.089844 C 106.375 39.265625 108.351562 58.671875 122.226562 57.523438 Z M 122.226562 57.523438 " fill-opacity="1" fill-rule="nonzero"/><path fill="#ffffff" d="M 209.433594 27.320312 C 219.65625 26.269531 226.234375 33.105469 229.882812 41.96875 C 223.140625 46.570312 214.421875 51.894531 208.050781 56.734375 C 213.359375 58.871094 216.140625 58.273438 220.453125 54.605469 C 222.515625 55.894531 225.054688 57.777344 227.085938 59.203125 C 227.546875 59.542969 227.582031 59.625 227.839844 60.140625 C 227.640625 63.523438 219.121094 66.632812 216.210938 67.078125 C 211.21875 67.890625 206.109375 66.65625 202.042969 63.652344 C 190.824219 55.34375 188.890625 34.875 203.398438 28.8125 C 205.394531 27.976562 207.296875 27.632812 209.433594 27.320312 Z M 202.917969 48.566406 L 207.613281 45.304688 L 216.929688 38.710938 C 214.695312 36.71875 213.332031 35.867188 210.144531 36.042969 C 210.007812 36.050781 209.867188 36.058594 209.730469 36.070312 C 203.179688 38.214844 202.484375 42.417969 202.917969 48.566406 Z M 202.917969 48.566406 " fill-opacity="1" fill-rule="nonzero"/><path fill="#ffffff" d="M 284.566406 26.839844 C 290.09375 26.019531 296.804688 27.964844 300.765625 32.023438 C 306.796875 38.203125 306.519531 46.015625 306.519531 54.027344 L 306.484375 66.359375 C 303.414062 66.476562 300.050781 66.417969 296.960938 66.417969 C 296.976562 60.667969 297.007812 54.902344 296.949219 49.15625 C 296.917969 45.347656 296.234375 41.28125 293.34375 38.550781 C 291.621094 36.925781 288.835938 35.871094 286.453125 35.988281 C 283.171875 36.148438 281.082031 37.707031 278.96875 39.972656 C 274.921875 46.59375 277.113281 55.792969 285.601562 57.238281 C 287.484375 57.558594 289.164062 57.207031 291.035156 56.898438 C 291.082031 59.996094 291.058594 63.15625 291.0625 66.257812 C 285.417969 67.046875 279.875 66.476562 275.105469 63.089844 C 266.160156 56.746094 264.742188 43.183594 271.046875 34.515625 C 274.433594 29.855469 278.972656 27.734375 284.566406 26.839844 Z M 284.566406 26.839844 " fill-opacity="1" fill-rule="nonzero"/><path fill="#ffffff" d="M 156.179688 27.960938 L 189.535156 27.949219 L 189.546875 37.089844 C 183.40625 43.695312 176.339844 50.34375 169.972656 56.972656 L 189.675781 56.96875 C 189.765625 60.023438 189.730469 63.238281 189.746094 66.304688 C 179.957031 66.8125 166.214844 66.5625 156.179688 66.417969 L 156.183594 57.050781 C 158.074219 55.320312 160.355469 52.777344 162.246094 50.875 C 166.777344 46.371094 171.273438 41.835938 175.742188 37.273438 L 156.1875 37.257812 Z M 156.179688 27.960938 " fill-opacity="1" fill-rule="nonzero"/><path fill="#ffffff" d="M 68.191406 9.347656 C 71.378906 9.328125 74.5625 9.335938 77.75 9.375 L 77.730469 36.285156 C 77.710938 57.625 75.933594 57.035156 97.378906 56.976562 L 97.363281 66.355469 C 95.703125 66.382812 94.042969 66.402344 92.382812 66.414062 C 66.59375 66.527344 68.179688 57.617188 68.183594 35.472656 Z M 68.191406 9.347656 " fill-opacity="1" fill-rule="nonzero"/><path fill="#ffffff" d="M 143.105469 9.375 L 152.785156 9.367188 C 152.984375 15.523438 152.824219 22.738281 152.828125 28.972656 L 152.84375 66.46875 L 143.078125 66.472656 Z M 143.105469 9.375 " fill-opacity="1" fill-rule="nonzero"/><path fill="#ffffff" d="M 254.3125 28 C 256.542969 27.71875 261.453125 27.855469 263.90625 27.871094 L 263.929688 49.96875 C 263.949219 55.304688 264.128906 61.117188 263.886719 66.417969 C 261.070312 66.578125 257.132812 66.46875 254.234375 66.472656 C 253.949219 56.6875 254.324219 46.804688 254.210938 37.011719 C 254.175781 34.011719 254.144531 30.996094 254.3125 28 Z M 254.3125 28 " fill-opacity="1" fill-rule="nonzero"/><path fill="#ffffff" d="M 258.8125 16.425781 C 261.417969 16.3125 263.640625 18.292969 263.820312 20.894531 C 264.003906 23.492188 262.082031 25.765625 259.484375 26.015625 C 257.746094 26.179688 256.050781 25.390625 255.0625 23.953125 C 254.070312 22.511719 253.941406 20.648438 254.722656 19.082031 C 255.5 17.519531 257.066406 16.5 258.8125 16.425781 Z M 258.8125 16.425781 " fill-opacity="1" fill-rule="nonzero"/></svg>