<svg xmlns="http://www.w3.org/2000/svg" xmlns:xlink="http://www.w3.org/1999/xlink" width="500" zoomAndPan="magnify" viewBox="0 0 375 74.999997" height="100" preserveAspectRatio="xMidYMid meet" version="1.0"><path fill="#000000" d="M 117.191406 27.320312 C 128.128906 25.636719 138.347656 33.167969 140.003906 44.121094 C 141.65625 55.078125 134.113281 65.296875 123.167969 66.925781 C 112.261719 68.550781 102.101562 61.027344 100.453125 50.109375 C 98.804688 39.1875 106.292969 28.996094 117.191406 27.320312 Z M 122.050781 57.757812 C 131.640625 54.535156 132.710938 42.476562 124.296875 37.128906 C 122.867188 36.21875 120.515625 36.21875 118.820312 36.296875 C 106.207031 39.476562 108.179688 58.910156 122.050781 57.757812 Z M 122.050781 57.757812 " fill-opacity="1" fill-rule="nonzero"/><path fill="#000000" d="M 209.21875 27.515625 C 219.441406 26.460938 226.015625 33.3125 229.660156 42.183594 C 222.921875 46.792969 214.207031 52.121094 207.835938 56.96875 C 213.144531 59.109375 215.921875 58.507812 220.238281 54.839844 C 222.292969 56.128906 224.832031 58.015625 226.867188 59.441406 C 227.324219 59.78125 227.359375 59.863281 227.617188 60.378906 C 227.417969 63.765625 218.902344 66.878906 215.992188 67.328125 C 211.003906 68.140625 205.898438 66.902344 201.832031 63.898438 C 190.617188 55.578125 188.6875 35.082031 203.1875 29.011719 C 205.183594 28.171875 207.085938 27.828125 209.21875 27.515625 Z M 202.707031 48.789062 L 207.402344 45.527344 L 216.714844 38.921875 C 214.480469 36.929688 213.117188 36.074219 209.929688 36.25 C 209.792969 36.257812 209.652344 36.265625 209.515625 36.277344 C 202.96875 38.425781 202.273438 42.632812 202.707031 48.789062 Z M 202.707031 48.789062 " fill-opacity="1" fill-rule="nonzero"/><path fill="#000000" d="M 284.320312 27.035156 C 289.847656 26.214844 296.554688 28.164062 300.511719 32.222656 C 306.539062 38.414062 306.261719 46.238281 306.261719 54.257812 L 306.226562 66.609375 C 303.160156 66.726562 299.800781 66.664062 296.710938 66.667969 C 296.726562 60.910156 296.757812 55.136719 296.699219 49.378906 C 296.664062 45.566406 295.984375 41.496094 293.09375 38.761719 C 291.375 37.132812 288.589844 36.078125 286.207031 36.195312 C 282.929688 36.359375 280.839844 37.917969 278.726562 40.1875 C 274.679688 46.8125 276.871094 56.023438 285.355469 57.472656 C 287.238281 57.796875 288.914062 57.441406 290.785156 57.136719 C 290.832031 60.234375 290.808594 63.398438 290.816406 66.503906 C 285.171875 67.292969 279.632812 66.722656 274.863281 63.335938 C 265.921875 56.980469 264.507812 43.398438 270.808594 34.71875 C 274.195312 30.054688 278.730469 27.929688 284.320312 27.035156 Z M 284.320312 27.035156 " fill-opacity="1" fill-rule="nonzero"/><path fill="#000000" d="M 155.992188 28.160156 L 189.332031 28.144531 L 189.34375 37.296875 C 183.203125 43.914062 176.140625 50.570312 169.777344 57.210938 L 189.46875 57.203125 C 189.558594 60.261719 189.527344 63.484375 189.542969 66.554688 C 179.753906 67.058594 166.023438 66.8125 155.988281 66.664062 L 155.996094 57.289062 C 157.882812 55.554688 160.160156 53.007812 162.054688 51.101562 C 166.582031 46.59375 171.078125 42.050781 175.542969 37.480469 L 155.996094 37.464844 Z M 155.992188 28.160156 " fill-opacity="1" fill-rule="nonzero"/><path fill="#000000" d="M 68.039062 9.519531 C 71.222656 9.5 74.410156 9.507812 77.59375 9.550781 L 77.574219 36.492188 C 77.554688 57.863281 75.777344 57.273438 97.214844 57.210938 L 97.199219 66.601562 C 95.539062 66.632812 93.878906 66.652344 92.21875 66.660156 C 66.441406 66.777344 68.027344 57.851562 68.03125 35.679688 Z M 68.039062 9.519531 " fill-opacity="1" fill-rule="nonzero"/><path fill="#000000" d="M 142.921875 9.546875 L 152.597656 9.539062 C 152.796875 15.703125 152.636719 22.925781 152.636719 29.171875 L 152.652344 66.714844 L 142.894531 66.71875 Z M 142.921875 9.546875 " fill-opacity="1" fill-rule="nonzero"/><path fill="#000000" d="M 254.078125 28.199219 C 256.308594 27.917969 261.214844 28.054688 263.667969 28.070312 L 263.691406 50.191406 C 263.710938 55.539062 263.894531 61.359375 263.648438 66.664062 C 260.835938 66.824219 256.898438 66.714844 254.003906 66.722656 C 253.714844 56.921875 254.089844 47.027344 253.976562 37.21875 C 253.941406 34.21875 253.910156 31.195312 254.078125 28.199219 Z M 254.078125 28.199219 " fill-opacity="1" fill-rule="nonzero"/><path fill="#000000" d="M 258.578125 16.605469 C 261.183594 16.492188 263.402344 18.476562 263.585938 21.082031 C 263.765625 23.683594 261.84375 25.957031 259.25 26.207031 C 257.511719 26.375 255.816406 25.585938 254.828125 24.144531 C 253.835938 22.699219 253.707031 20.835938 254.488281 19.269531 C 255.265625 17.703125 256.832031 16.683594 258.578125 16.605469 Z M 258.578125 16.605469 " fill-opacity="1" fill-rule="nonzero"/></svg>